<svg width="40" height="40" viewBox="0 0 40 40" fill="none" xmlns="http://www.w3.org/2000/svg">
<g clip-path="url(#clip0_25_22302)">
<path d="M0.929239 40C0.70463 40 0.486124 39.9112 0.324076 39.7473C0.110454 39.5312 0.0280563 39.2175 0.108317 38.9243L2.70872 29.4284C1.08976 26.5009 0.236186 23.1891 0.237406 19.8273C0.241984 8.89435 9.13906 0 20.0711 0C25.3735 0.00213623 30.3558 2.06757 34.1006 5.81512C37.8448 9.56299 39.9059 14.545 39.9044 19.8431C39.8995 30.7764 31.0024 39.6713 20.0711 39.6713C20.0711 39.6713 20.0628 39.6713 20.0625 39.6713C16.8695 39.6701 13.7039 38.8919 10.8853 37.4179L1.145 39.9722C1.07359 39.9908 1.00096 40 0.929239 40Z" fill="#E5E5E5"/>
<path d="M0.929688 39.1488L3.62256 29.3152C1.96149 26.4371 1.08777 23.1723 1.08899 19.8276C1.09326 9.36405 9.60829 0.851196 20.0716 0.851196C25.1491 0.853333 29.915 2.82965 33.499 6.41667C37.0827 10.0037 39.0557 14.7718 39.0538 19.8428C39.0492 30.3061 30.533 38.8202 20.0716 38.8202C20.0709 38.8202 20.0719 38.8202 20.0716 38.8202H20.0633C16.8864 38.8189 13.7651 38.0221 10.9926 36.51L0.929688 39.1488ZM11.4586 33.0746L12.0351 33.4161C14.4569 34.8535 17.2337 35.6137 20.0655 35.6152H20.0716C28.7673 35.6152 35.8449 28.5388 35.8486 19.8416C35.8501 15.6269 34.2107 11.6635 31.2319 8.68229C28.2527 5.70104 24.2918 4.05828 20.0774 4.05645C11.3746 4.05645 4.29731 11.1319 4.29395 19.8288C4.29273 22.8091 5.12647 25.7114 6.70606 28.223L7.08143 28.8199L5.48719 34.6402L11.4586 33.0746Z" fill="white"/>
<path d="M1.58984 38.4863L4.18963 28.9926C2.58563 26.2143 1.74243 23.0621 1.74335 19.8337C1.74731 9.73236 9.96783 1.51428 20.0682 1.51428C24.9706 1.51642 29.5717 3.42438 33.0309 6.88721C36.4909 10.35 38.3952 14.953 38.3934 19.848C38.3891 29.9496 30.1683 38.1686 20.0691 38.1686C20.0682 38.1686 20.0694 38.1686 20.0691 38.1686H20.0609C16.9942 38.1674 13.9806 37.3978 11.3042 35.939L1.58984 38.4863Z" fill="#64B161"/>
<path d="M0.929688 39.1488L3.62256 29.3152C1.96149 26.4371 1.08777 23.1723 1.08899 19.8276C1.09326 9.36405 9.60829 0.851196 20.0716 0.851196C25.1491 0.853333 29.915 2.82965 33.499 6.41667C37.0827 10.0037 39.0557 14.7718 39.0538 19.8428C39.0492 30.3061 30.533 38.8202 20.0716 38.8202C20.0709 38.8202 20.0719 38.8202 20.0716 38.8202H20.0633C16.8864 38.8189 13.7651 38.0221 10.9926 36.51L0.929688 39.1488ZM11.4586 33.0746L12.0351 33.4161C14.4569 34.8535 17.2337 35.6137 20.0655 35.6152H20.0716C28.7673 35.6152 35.8449 28.5388 35.8486 19.8416C35.8501 15.6269 34.2107 11.6635 31.2319 8.68229C28.2527 5.70104 24.2918 4.05828 20.0774 4.05645C11.3746 4.05645 4.29731 11.1319 4.29395 19.8288C4.29273 22.8091 5.12647 25.7114 6.70606 28.223L7.08143 28.8199L5.48719 34.6402L11.4586 33.0746Z" fill="white"/>
<path fill-rule="evenodd" clip-rule="evenodd" d="M15.3272 11.8943C14.972 11.1045 14.5978 11.0886 14.2597 11.0749C13.9832 11.063 13.6667 11.0636 13.3509 11.0636C13.0347 11.0636 12.5208 11.1826 12.0862 11.6572C11.6514 12.1317 10.4258 13.2792 10.4258 15.6129C10.4258 17.9469 12.1256 20.2018 12.3627 20.5186C12.5998 20.8351 15.644 25.7771 20.4648 27.6784C24.4715 29.2586 25.2866 28.9442 26.1563 28.8652C27.0261 28.7862 28.9624 27.7177 29.3576 26.6103C29.7531 25.5028 29.7531 24.5537 29.6344 24.355C29.5157 24.1575 29.1995 24.0388 28.7253 23.8017C28.2511 23.5646 25.9192 22.4168 25.4843 22.2587C25.0495 22.1003 24.7333 22.0216 24.4171 22.4965C24.1007 22.9707 23.1925 24.0388 22.9157 24.355C22.6389 24.6721 22.3621 24.7117 21.8879 24.4743C21.4136 24.2366 19.8859 23.7361 18.0738 22.1202C16.6639 20.8632 15.7117 19.3104 15.4349 18.8356C15.1584 18.3613 15.4303 18.1269 15.6434 17.8678C16.027 17.4012 16.6706 16.5623 16.8287 16.2461C16.9867 15.9294 16.9077 15.6526 16.7893 15.4151C16.6706 15.178 15.7486 12.8324 15.3272 11.8943Z" fill="white"/>
</g>
<defs>
<clipPath id="clip0_25_22302">
<rect width="40" height="40" fill="white"/>
</clipPath>
</defs>
</svg>
